<svg width="21" height="21" viewBox="0 0 21 21" fill="none" xmlns="http://www.w3.org/2000/svg">
<path d="M4.92188 8.03906C4.92188 11.107 7.43203 13.6172 10.5 13.6172C13.568 13.6172 16.0781 11.107 16.0781 8.03906C16.0781 4.97109 13.568 2.46094 10.5 2.46094C7.43203 2.46094 4.92188 4.97109 4.92188 8.03906ZM14.7656 8.03906C14.7656 10.3852 12.8461 12.3047 10.5 12.3047C8.15391 12.3047 6.23438 10.3852 6.23438 8.03906C6.23438 5.69297 8.15391 3.77344 10.5 3.77344C12.8461 3.77344 14.7656 5.69297 14.7656 8.03906Z" fill="#414354"/>
<path d="M4.00303 19.5891C5.74209 17.85 8.03897 16.8984 10.4999 16.8984C12.9608 16.8984 15.2577 17.85 16.9968 19.5891L17.9319 18.6539C15.9468 16.6852 13.3054 15.5859 10.4999 15.5859C7.69443 15.5859 5.05303 16.6852 3.06787 18.6539L4.00303 19.5891Z" fill="#414354"/>
</svg>
