<svg width="18" height="18" viewBox="0 0 18 18" fill="none" xmlns="http://www.w3.org/2000/svg">
<path d="M10.4492 3C11.0593 3.0006 11.6442 3.24321 12.0756 3.67461C12.507 4.106 12.7496 4.69092 12.7502 5.301C12.7502 5.49991 12.8293 5.69068 12.9699 5.83133C13.1106 5.97198 13.3013 6.051 13.5002 6.051C13.6992 6.051 13.8899 5.97198 14.0306 5.83133C14.1712 5.69068 14.2502 5.49991 14.2502 5.301V5.25C14.2502 5.23575 14.2502 5.223 14.2502 5.20875C14.2252 4.21705 13.8138 3.27434 13.1038 2.58154C12.3938 1.88875 11.4413 1.50066 10.4492 1.5H9.75024V0.75C9.75024 0.551088 9.67123 0.360322 9.53057 0.21967C9.38992 0.0790176 9.19916 0 9.00024 0C8.80133 0 8.61057 0.0790176 8.46991 0.21967C8.32926 0.360322 8.25024 0.551088 8.25024 0.75V1.5H7.55124C6.64923 1.50096 5.77696 1.82268 5.09034 2.40763C4.40372 2.99259 3.9475 3.80267 3.80323 4.69307C3.65897 5.58347 3.83605 6.49615 4.30284 7.26799C4.76962 8.03983 5.49569 8.62052 6.35124 8.90625L8.25024 9.54V15H7.55124C6.94116 14.9994 6.35624 14.7568 5.92485 14.3254C5.49346 13.894 5.25084 13.3091 5.25024 12.699C5.25024 12.5001 5.17123 12.3093 5.03057 12.1687C4.88992 12.028 4.69916 11.949 4.50024 11.949C4.30133 11.949 4.11057 12.028 3.96991 12.1687C3.82926 12.3093 3.75024 12.5001 3.75024 12.699V12.75C3.75024 12.7642 3.75024 12.777 3.75024 12.7913C3.77527 13.783 4.18664 14.7257 4.89667 15.4185C5.60669 16.1113 6.55923 16.4993 7.55124 16.5H8.25024V17.25C8.25024 17.4489 8.32926 17.6397 8.46991 17.7803C8.61057 17.921 8.80133 18 9.00024 18C9.19916 18 9.38992 17.921 9.53057 17.7803C9.67123 17.6397 9.75024 17.4489 9.75024 17.25V16.5H10.4492C11.3513 16.499 12.2235 16.1773 12.9101 15.5924C13.5968 15.0074 14.053 14.1973 14.1973 13.3069C14.3415 12.4165 14.1644 11.5038 13.6977 10.732C13.2309 9.96017 12.5048 9.37948 11.6492 9.09375L9.75024 8.46V3H10.4492ZM11.1767 10.5157C11.6953 10.6883 12.1355 11.0399 12.4185 11.5074C12.7016 11.975 12.8089 12.528 12.7214 13.0675C12.6339 13.607 12.3572 14.0977 11.9409 14.4518C11.5245 14.8059 10.9958 15.0002 10.4492 15H9.75024V10.0402L11.1767 10.5157ZM8.25024 7.95975L6.82524 7.48425C6.3068 7.3117 5.86668 6.96028 5.58365 6.49289C5.30061 6.0255 5.19314 5.47264 5.28047 4.93326C5.3678 4.39387 5.64422 3.90317 6.06027 3.54896C6.47632 3.19475 7.00484 3.00015 7.55124 3H8.25024V7.95975Z" fill="#414354"/>
</svg>
