<svg width="25" height="25" viewBox="0 0 25 25" fill="none" xmlns="http://www.w3.org/2000/svg">
<path d="M12.8495 13.7126L13.9495 12.0126C13.9857 11.9499 14.0048 11.8788 14.0048 11.8064C14.0048 11.734 13.9857 11.6628 13.9495 11.6001C13.9132 11.5384 13.8593 11.4888 13.7948 11.4577C13.7303 11.4265 13.658 11.4152 13.587 11.4251C11.3995 11.6001 9.71205 11.7626 9.71205 11.7626C9.6549 11.766 9.59928 11.7824 9.54944 11.8105C9.49961 11.8387 9.45689 11.8779 9.42455 11.9251C9.39995 11.978 9.38721 12.0356 9.38721 12.0939C9.38721 12.1522 9.39995 12.2098 9.42455 12.2626L10.6745 15.9501C10.6943 16.0202 10.7346 16.0827 10.7903 16.1295C10.8461 16.1763 10.9146 16.2053 10.987 16.2126C11.0498 16.213 11.1116 16.1971 11.1664 16.1664C11.2212 16.1357 11.2671 16.0914 11.2995 16.0376L12.3995 14.3501L14.9995 16.0626C15.0643 16.1004 15.1372 16.1218 15.212 16.1251C15.2765 16.1253 15.34 16.1094 15.3967 16.0788C15.4535 16.0482 15.5017 16.004 15.537 15.9501C15.5897 15.865 15.6074 15.7628 15.5865 15.665C15.5655 15.5671 15.5075 15.4812 15.4245 15.4251L12.8495 13.7126ZM11.1245 14.9626L10.2745 12.4626L12.887 12.2376L11.1245 14.9626Z" fill="#414354"/>
<path d="M19.6123 5.4873H5.38726C4.85351 5.4873 4.34162 5.69934 3.9642 6.07675C3.58679 6.45417 3.37476 6.96606 3.37476 7.4998V17.4998C3.37476 18.0336 3.58679 18.5454 3.9642 18.9229C4.34162 19.3003 4.85351 19.5123 5.38726 19.5123H19.6123C20.146 19.5123 20.6579 19.3003 21.0353 18.9229C21.4127 18.5454 21.6248 18.0336 21.6248 17.4998V7.4998C21.6248 6.96606 21.4127 6.45417 21.0353 6.07675C20.6579 5.69934 20.146 5.4873 19.6123 5.4873ZM5.38726 6.2498H19.6123C19.9438 6.2498 20.2617 6.3815 20.4961 6.61592C20.7306 6.85034 20.8623 7.16828 20.8623 7.4998V8.3998H4.13726V7.4998C4.13726 7.16828 4.26895 6.85034 4.50337 6.61592C4.73779 6.3815 5.05574 6.2498 5.38726 6.2498ZM19.6123 18.7498H5.38726C5.05574 18.7498 4.73779 18.6181 4.50337 18.3837C4.26895 18.1493 4.13726 17.8313 4.13726 17.4998V9.1623H20.8623V17.4998C20.8623 17.664 20.8299 17.8265 20.7671 17.9782C20.7043 18.1298 20.6122 18.2676 20.4961 18.3837C20.3801 18.4998 20.2423 18.5918 20.0906 18.6547C19.939 18.7175 19.7764 18.7498 19.6123 18.7498Z" fill="#414354"/>
<path d="M19.2962 5.55566H5.70377C5.19376 5.55566 4.70463 5.75827 4.344 6.1189C3.98336 6.47954 3.78076 6.96866 3.78076 7.47868V17.034C3.78076 17.544 3.98336 18.0331 4.344 18.3938C4.70463 18.7544 5.19376 18.957 5.70377 18.957H19.2962C19.8062 18.957 20.2954 18.7544 20.656 18.3938C21.0166 18.0331 21.2192 17.544 21.2192 17.034V7.47868C21.2192 6.96866 21.0166 6.47954 20.656 6.1189C20.2954 5.75827 19.8062 5.55566 19.2962 5.55566ZM5.70377 6.28426H19.2962C19.613 6.28426 19.9168 6.4101 20.1408 6.63409C20.3648 6.85809 20.4907 7.1619 20.4907 7.47868V8.33866H4.50936V7.47868C4.50936 7.1619 4.6352 6.85809 4.85919 6.63409C5.08319 6.4101 5.38699 6.28426 5.70377 6.28426ZM19.2962 18.2284H5.70377C5.38699 18.2284 5.08319 18.1026 4.85919 17.8786C4.6352 17.6546 4.50936 17.3508 4.50936 17.034V9.06725H20.4907V17.034C20.4907 17.1909 20.4598 17.3462 20.3997 17.4911C20.3397 17.636 20.2517 17.7677 20.1408 17.8786C20.0299 17.9895 19.8982 18.0775 19.7533 18.1375C19.6084 18.1975 19.4531 18.2284 19.2962 18.2284Z" fill="#414354"/>
<path d="M19.2962 6.11133H5.70377C5.19376 6.11133 4.70463 6.31393 4.344 6.67457C3.98336 7.0352 3.78076 7.52433 3.78076 8.03434V17.5897C3.78076 18.0997 3.98336 18.5888 4.344 18.9494C4.70463 19.3101 5.19376 19.5127 5.70377 19.5127H19.2962C19.8062 19.5127 20.2954 19.3101 20.656 18.9494C21.0166 18.5888 21.2192 18.0997 21.2192 17.5897V8.03434C21.2192 7.52433 21.0166 7.0352 20.656 6.67457C20.2954 6.31393 19.8062 6.11133 19.2962 6.11133ZM5.70377 6.83992H19.2962C19.613 6.83992 19.9168 6.96576 20.1408 7.18976C20.3648 7.41376 20.4907 7.71756 20.4907 8.03434V8.89432H4.50936V8.03434C4.50936 7.71756 4.6352 7.41376 4.85919 7.18976C5.08319 6.96576 5.38699 6.83992 5.70377 6.83992ZM19.2962 18.7841H5.70377C5.38699 18.7841 5.08319 18.6582 4.85919 18.4343C4.6352 18.2103 4.50936 17.9065 4.50936 17.5897V9.62291H20.4907V17.5897C20.4907 17.7465 20.4598 17.9018 20.3997 18.0468C20.3397 18.1917 20.2517 18.3233 20.1408 18.4343C20.0299 18.5452 19.8982 18.6331 19.7533 18.6932C19.6084 18.7532 19.4531 18.7841 19.2962 18.7841Z" fill="#414354"/>
<path d="M5.38764 7.82492C5.47342 7.83249 5.55948 7.81382 5.63441 7.77139C5.70934 7.72896 5.76962 7.66477 5.80726 7.58731C5.8449 7.50986 5.85812 7.4228 5.84517 7.33767C5.83222 7.25253 5.79372 7.17334 5.73476 7.11058C5.6758 7.04781 5.59917 7.00444 5.51501 6.9862C5.43085 6.96797 5.34313 6.97572 5.26348 7.00845C5.18383 7.04118 5.116 7.09733 5.06897 7.16947C5.02194 7.24161 4.99794 7.32633 5.00014 7.41242C5.0028 7.51676 5.04377 7.61647 5.11524 7.69255C5.1867 7.76862 5.28367 7.81574 5.38764 7.82492Z" fill="#414354"/>
<path d="M6.44931 7.82529C6.54796 7.80818 6.6374 7.7568 6.70187 7.68019C6.76634 7.60358 6.80169 7.50667 6.80169 7.40654C6.80169 7.30642 6.76634 7.20951 6.70187 7.1329C6.6374 7.05629 6.54796 7.0049 6.44931 6.98779C6.35065 7.0049 6.26121 7.05629 6.19674 7.1329C6.13227 7.20951 6.09692 7.30642 6.09692 7.40654C6.09692 7.50667 6.13227 7.60358 6.19674 7.68019C6.26121 7.7568 6.35065 7.80818 6.44931 7.82529Z" fill="#414354"/>
<path d="M7.50008 7.82468C7.58515 7.82714 7.669 7.80401 7.74078 7.75828C7.81256 7.71255 7.86895 7.64632 7.90265 7.56817C7.93636 7.49002 7.94582 7.40355 7.92983 7.31996C7.91383 7.23637 7.8731 7.15951 7.81292 7.09933C7.75274 7.03915 7.67588 6.99843 7.59229 6.98243C7.5087 6.96643 7.42223 6.9759 7.34409 7.0096C7.26594 7.04331 7.19971 7.0997 7.15398 7.17148C7.10824 7.24325 7.08511 7.3271 7.08758 7.41218C7.09073 7.52058 7.13519 7.62369 7.21188 7.70037C7.28857 7.77706 7.39167 7.82153 7.50008 7.82468Z" fill="#414354"/>
</svg>
