<svg width="162" height="134" viewBox="0 0 162 134" fill="none" xmlns="http://www.w3.org/2000/svg">
<path d="M10.4986 115V106.917H11.6487L16.0972 112.906L15.5005 113.025V106.917H16.9761V115H15.8151L11.4317 108.967L11.9742 108.848V115H10.4986ZM21.3075 115.13C20.7288 115.13 20.2008 114.996 19.7234 114.729C19.2532 114.461 18.8771 114.096 18.595 113.633C18.3201 113.17 18.1827 112.642 18.1827 112.049C18.1827 111.456 18.3201 110.928 18.595 110.465C18.8771 110.002 19.2532 109.636 19.7234 109.369C20.1936 109.101 20.7216 108.967 21.3075 108.967C21.8862 108.967 22.4106 109.101 22.8807 109.369C23.3509 109.636 23.7234 110.002 23.9983 110.465C24.2804 110.92 24.4214 111.448 24.4214 112.049C24.4214 112.642 24.2804 113.17 23.9983 113.633C23.7162 114.096 23.3401 114.461 22.8699 114.729C22.3997 114.996 21.8789 115.13 21.3075 115.13ZM21.3075 113.828C21.6258 113.828 21.9042 113.752 22.1429 113.6C22.3889 113.448 22.5806 113.239 22.718 112.971C22.8627 112.696 22.935 112.389 22.935 112.049C22.935 111.702 22.8627 111.398 22.718 111.137C22.5806 110.87 22.3889 110.66 22.1429 110.508C21.9042 110.349 21.6258 110.269 21.3075 110.269C20.982 110.269 20.6963 110.349 20.4503 110.508C20.2044 110.66 20.0091 110.87 19.8644 111.137C19.727 111.398 19.6583 111.702 19.6583 112.049C19.6583 112.389 19.727 112.696 19.8644 112.971C20.0091 113.239 20.2044 113.448 20.4503 113.6C20.6963 113.752 20.982 113.828 21.3075 113.828ZM31.3446 115.13C30.7659 115.13 30.2307 115.025 29.7388 114.816C29.2542 114.606 28.8274 114.313 28.4585 113.937C28.0968 113.561 27.8147 113.119 27.6122 112.613C27.4097 112.107 27.3084 111.553 27.3084 110.953C27.3084 110.353 27.406 109.799 27.6013 109.293C27.8039 108.779 28.086 108.338 28.4476 107.969C28.8165 107.593 29.2469 107.304 29.7388 107.101C30.2307 106.891 30.7659 106.787 31.3446 106.787C31.9233 106.787 32.4404 106.884 32.8961 107.08C33.3591 107.275 33.7497 107.535 34.0679 107.861C34.3862 108.179 34.6141 108.53 34.7515 108.913L33.4278 109.532C33.2759 109.127 33.0191 108.794 32.6574 108.533C32.2958 108.266 31.8582 108.132 31.3446 108.132C30.8383 108.132 30.3898 108.251 29.9992 108.49C29.6158 108.729 29.3156 109.058 29.0986 109.477C28.8889 109.897 28.784 110.389 28.784 110.953C28.784 111.517 28.8889 112.013 29.0986 112.439C29.3156 112.859 29.6158 113.188 29.9992 113.427C30.3898 113.665 30.8383 113.785 31.3446 113.785C31.8582 113.785 32.2958 113.655 32.6574 113.394C33.0191 113.127 33.2759 112.79 33.4278 112.385L34.7515 113.004C34.6141 113.387 34.3862 113.741 34.0679 114.067C33.7497 114.385 33.3591 114.642 32.8961 114.837C32.4404 115.033 31.9233 115.13 31.3446 115.13ZM37.5144 115.13C37.1021 115.13 36.7441 115.061 36.4403 114.924C36.1365 114.787 35.9014 114.591 35.735 114.338C35.5687 114.078 35.4855 113.778 35.4855 113.438C35.4855 113.112 35.5578 112.823 35.7025 112.57C35.8471 112.309 36.0714 112.092 36.3752 111.919C36.679 111.745 37.0623 111.622 37.5253 111.55L39.4566 111.235V112.32L37.7965 112.602C37.5144 112.653 37.3047 112.743 37.1672 112.873C37.0298 113.004 36.9611 113.174 36.9611 113.383C36.9611 113.586 37.037 113.749 37.1889 113.872C37.3481 113.987 37.5434 114.045 37.7748 114.045C38.0714 114.045 38.3318 113.984 38.556 113.861C38.7875 113.731 38.9647 113.553 39.0877 113.329C39.2179 113.105 39.283 112.859 39.283 112.591V111.072C39.283 110.819 39.1817 110.609 38.9792 110.443C38.7839 110.269 38.5235 110.183 38.198 110.183C37.8942 110.183 37.6229 110.266 37.3842 110.432C37.1528 110.591 36.9828 110.805 36.8743 111.072L35.7133 110.508C35.8291 110.197 36.0099 109.929 36.2558 109.705C36.509 109.474 36.8056 109.293 37.1455 109.163C37.4855 109.032 37.8544 108.967 38.2522 108.967C38.7369 108.967 39.1636 109.058 39.5325 109.239C39.9014 109.412 40.1871 109.658 40.3897 109.976C40.5994 110.287 40.7043 110.653 40.7043 111.072V115H39.3589V113.991L39.6627 113.969C39.5108 114.222 39.33 114.436 39.1202 114.609C38.9105 114.776 38.6718 114.906 38.4041 115C38.1365 115.087 37.8399 115.13 37.5144 115.13ZM42.018 117.17V109.098H43.3526V110.269L43.2224 109.976C43.4249 109.658 43.6998 109.412 44.047 109.239C44.3942 109.058 44.7956 108.967 45.2513 108.967C45.8083 108.967 46.311 109.105 46.7595 109.38C47.2079 109.655 47.5624 110.023 47.8228 110.486C48.0904 110.949 48.2242 111.47 48.2242 112.049C48.2242 112.62 48.094 113.141 47.8336 113.611C47.5732 114.081 47.2188 114.454 46.7703 114.729C46.3219 114.996 45.8119 115.13 45.2405 115.13C44.8137 115.13 44.4195 115.047 44.0578 114.881C43.7034 114.707 43.4213 114.461 43.2115 114.143L43.4394 113.861V117.17H42.018ZM45.0777 113.828C45.4032 113.828 45.6926 113.752 45.9457 113.6C46.1989 113.448 46.3942 113.239 46.5316 112.971C46.6763 112.703 46.7486 112.396 46.7486 112.049C46.7486 111.702 46.6763 111.398 46.5316 111.137C46.3942 110.87 46.1989 110.66 45.9457 110.508C45.6926 110.349 45.4032 110.269 45.0777 110.269C44.7667 110.269 44.4846 110.345 44.2314 110.497C43.9855 110.649 43.7902 110.863 43.6455 111.137C43.5081 111.405 43.4394 111.709 43.4394 112.049C43.4394 112.396 43.5081 112.703 43.6455 112.971C43.7902 113.239 43.9855 113.448 44.2314 113.6C44.4846 113.752 44.7667 113.828 45.0777 113.828ZM51.8927 115.065C51.2272 115.065 50.7101 114.884 50.3412 114.523C49.9795 114.154 49.7987 113.637 49.7987 112.971V110.367H48.7788V109.098H48.8873C49.1766 109.098 49.4008 109.022 49.56 108.87C49.7191 108.718 49.7987 108.497 49.7987 108.208V107.752H51.22V109.098H52.5763V110.367H51.22V112.895C51.22 113.09 51.2526 113.257 51.3177 113.394C51.39 113.532 51.4985 113.637 51.6432 113.709C51.7951 113.781 51.9867 113.817 52.2182 113.817C52.2688 113.817 52.3267 113.814 52.3918 113.806C52.4641 113.799 52.5329 113.792 52.598 113.785V115C52.4967 115.014 52.381 115.029 52.2508 115.043C52.1206 115.058 52.0012 115.065 51.8927 115.065ZM53.6839 115V109.098H55.1052V115H53.6839ZM53.6839 108.436V106.917H55.1052V108.436H53.6839ZM58.197 115L55.8751 109.098H57.4266L59.1084 113.741H58.5333L60.2259 109.098H61.7775L59.4556 115H58.197ZM65.2564 115.13C64.6488 115.13 64.1172 114.993 63.6615 114.718C63.2058 114.443 62.8514 114.071 62.5982 113.6C62.345 113.13 62.2184 112.609 62.2184 112.038C62.2184 111.445 62.345 110.92 62.5982 110.465C62.8586 110.002 63.2094 109.636 63.6506 109.369C64.0991 109.101 64.5982 108.967 65.1479 108.967C65.6109 108.967 66.0159 109.043 66.3631 109.195C66.7176 109.347 67.0178 109.557 67.2637 109.825C67.5096 110.092 67.6977 110.4 67.8279 110.747C67.9581 111.087 68.0232 111.456 68.0232 111.853C68.0232 111.955 68.016 112.06 68.0015 112.168C67.9943 112.277 67.9762 112.371 67.9472 112.45H63.3902V111.365H67.1443L66.4716 111.875C66.5367 111.542 66.5187 111.246 66.4174 110.986C66.3234 110.725 66.1642 110.519 65.94 110.367C65.723 110.215 65.459 110.139 65.1479 110.139C64.8514 110.139 64.5874 110.215 64.3559 110.367C64.1244 110.512 63.9472 110.729 63.8242 111.018C63.7085 111.3 63.6651 111.644 63.694 112.049C63.6651 112.41 63.7121 112.732 63.8351 113.014C63.9653 113.289 64.1534 113.503 64.3993 113.655C64.6525 113.806 64.9418 113.882 65.2673 113.882C65.5928 113.882 65.8677 113.814 66.0919 113.676C66.3234 113.539 66.5042 113.354 66.6344 113.123L67.7845 113.687C67.6688 113.969 67.4879 114.219 67.242 114.436C66.9961 114.653 66.7031 114.823 66.3631 114.946C66.0304 115.069 65.6615 115.13 65.2564 115.13ZM71.1484 115V106.917H74.1647C74.7144 106.917 75.1991 107.018 75.6186 107.221C76.0454 107.416 76.3781 107.705 76.6168 108.089C76.8555 108.465 76.9749 108.924 76.9749 109.466C76.9749 110.002 76.8519 110.461 76.606 110.844C76.3673 111.221 76.0381 111.51 75.6186 111.712C75.1991 111.915 74.7144 112.016 74.1647 112.016H72.624V115H71.1484ZM72.624 110.714H74.1864C74.454 110.714 74.6855 110.664 74.8808 110.562C75.0761 110.454 75.228 110.306 75.3365 110.118C75.445 109.929 75.4993 109.712 75.4993 109.466C75.4993 109.213 75.445 108.996 75.3365 108.815C75.228 108.627 75.0761 108.483 74.8808 108.382C74.6855 108.273 74.454 108.219 74.1864 108.219H72.624V110.714ZM80.7388 115.13C80.1601 115.13 79.6321 114.996 79.1547 114.729C78.6845 114.461 78.3084 114.096 78.0263 113.633C77.7514 113.17 77.614 112.642 77.614 112.049C77.614 111.456 77.7514 110.928 78.0263 110.465C78.3084 110.002 78.6845 109.636 79.1547 109.369C79.6249 109.101 80.1529 108.967 80.7388 108.967C81.3175 108.967 81.8419 109.101 82.312 109.369C82.7822 109.636 83.1547 110.002 83.4296 110.465C83.7117 110.92 83.8527 111.448 83.8527 112.049C83.8527 112.642 83.7117 113.17 83.4296 113.633C83.1475 114.096 82.7714 114.461 82.3012 114.729C81.831 114.996 81.3102 115.13 80.7388 115.13ZM80.7388 113.828C81.0571 113.828 81.3355 113.752 81.5742 113.6C81.8202 113.448 82.0119 113.239 82.1493 112.971C82.294 112.696 82.3663 112.389 82.3663 112.049C82.3663 111.702 82.294 111.398 82.1493 111.137C82.0119 110.87 81.8202 110.66 81.5742 110.508C81.3355 110.349 81.0571 110.269 80.7388 110.269C80.4133 110.269 80.1276 110.349 79.8816 110.508C79.6357 110.66 79.4404 110.87 79.2957 111.137C79.1583 111.398 79.0896 111.702 79.0896 112.049C79.0896 112.389 79.1583 112.696 79.2957 112.971C79.4404 113.239 79.6357 113.448 79.8816 113.6C80.1276 113.752 80.4133 113.828 80.7388 113.828ZM84.9306 115V109.098H86.2652V110.41L86.1567 110.215C86.2941 109.774 86.5075 109.466 86.7968 109.293C87.0934 109.119 87.4478 109.033 87.8601 109.033H88.2073V110.291H87.6974C87.2923 110.291 86.9668 110.418 86.7209 110.671C86.4749 110.917 86.352 111.264 86.352 111.712V115H84.9306ZM91.8385 115.065C91.173 115.065 90.6559 114.884 90.287 114.523C89.9253 114.154 89.7445 113.637 89.7445 112.971V110.367H88.7246V109.098H88.8331C89.1224 109.098 89.3466 109.022 89.5058 108.87C89.6649 108.718 89.7445 108.497 89.7445 108.208V107.752H91.1658V109.098H92.5221V110.367H91.1658V112.895C91.1658 113.09 91.1984 113.257 91.2635 113.394C91.3358 113.532 91.4443 113.637 91.589 113.709C91.7409 113.781 91.9325 113.817 92.164 113.817C92.2146 113.817 92.2725 113.814 92.3376 113.806C92.4099 113.799 92.4787 113.792 92.5438 113.785V115C92.4425 115.014 92.3268 115.029 92.1966 115.043C92.0664 115.058 91.947 115.065 91.8385 115.065ZM95.3988 115.13C94.9865 115.13 94.6284 115.061 94.3246 114.924C94.0208 114.787 93.7857 114.591 93.6194 114.338C93.453 114.078 93.3698 113.778 93.3698 113.438C93.3698 113.112 93.4421 112.823 93.5868 112.57C93.7315 112.309 93.9557 112.092 94.2595 111.919C94.5633 111.745 94.9467 111.622 95.4096 111.55L97.3409 111.235V112.32L95.6809 112.602C95.3988 112.653 95.189 112.743 95.0516 112.873C94.9141 113.004 94.8454 113.174 94.8454 113.383C94.8454 113.586 94.9214 113.749 95.0733 113.872C95.2324 113.987 95.4277 114.045 95.6592 114.045C95.9557 114.045 96.2161 113.984 96.4404 113.861C96.6718 113.731 96.849 113.553 96.972 113.329C97.1022 113.105 97.1673 112.859 97.1673 112.591V111.072C97.1673 110.819 97.066 110.609 96.8635 110.443C96.6682 110.269 96.4078 110.183 96.0823 110.183C95.7785 110.183 95.5073 110.266 95.2686 110.432C95.0371 110.591 94.8671 110.805 94.7586 111.072L93.5977 110.508C93.7134 110.197 93.8942 109.929 94.1402 109.705C94.3933 109.474 94.6899 109.293 95.0299 109.163C95.3698 109.032 95.7387 108.967 96.1366 108.967C96.6212 108.967 97.048 109.058 97.4169 109.239C97.7858 109.412 98.0715 109.658 98.274 109.976C98.4838 110.287 98.5887 110.653 98.5887 111.072V115H97.2433V113.991L97.5471 113.969C97.3952 114.222 97.2143 114.436 97.0046 114.609C96.7948 114.776 96.5561 114.906 96.2885 115C96.0208 115.087 95.7243 115.13 95.3988 115.13ZM99.9024 115V106.787H101.324V115H99.9024ZM107.255 115.065C106.59 115.065 106.073 114.884 105.704 114.523C105.342 114.154 105.161 113.637 105.161 112.971V110.367H104.141V109.098H104.25C104.539 109.098 104.763 109.022 104.923 108.87C105.082 108.718 105.161 108.497 105.161 108.208V107.752H106.583V109.098H107.939V110.367H106.583V112.895C106.583 113.09 106.615 113.257 106.68 113.394C106.753 113.532 106.861 113.637 107.006 113.709C107.158 113.781 107.349 113.817 107.581 113.817C107.631 113.817 107.689 113.814 107.754 113.806C107.827 113.799 107.895 113.792 107.961 113.785V115C107.859 115.014 107.744 115.029 107.613 115.043C107.483 115.058 107.364 115.065 107.255 115.065ZM111.793 115.13C111.185 115.13 110.654 114.993 110.198 114.718C109.742 114.443 109.388 114.071 109.135 113.6C108.881 113.13 108.755 112.609 108.755 112.038C108.755 111.445 108.881 110.92 109.135 110.465C109.395 110.002 109.746 109.636 110.187 109.369C110.635 109.101 111.135 108.967 111.684 108.967C112.147 108.967 112.552 109.043 112.899 109.195C113.254 109.347 113.554 109.557 113.8 109.825C114.046 110.092 114.234 110.4 114.364 110.747C114.494 111.087 114.56 111.456 114.56 111.853C114.56 111.955 114.552 112.06 114.538 112.168C114.531 112.277 114.512 112.371 114.484 112.45H109.927V111.365H113.681L113.008 111.875C113.073 111.542 113.055 111.246 112.954 110.986C112.86 110.725 112.701 110.519 112.476 110.367C112.259 110.215 111.995 110.139 111.684 110.139C111.388 110.139 111.124 110.215 110.892 110.367C110.661 110.512 110.484 110.729 110.361 111.018C110.245 111.3 110.201 111.644 110.23 112.049C110.201 112.41 110.248 112.732 110.371 113.014C110.502 113.289 110.69 113.503 110.936 113.655C111.189 113.806 111.478 113.882 111.804 113.882C112.129 113.882 112.404 113.814 112.628 113.676C112.86 113.539 113.041 113.354 113.171 113.123L114.321 113.687C114.205 113.969 114.024 114.219 113.778 114.436C113.532 114.653 113.239 114.823 112.899 114.946C112.567 115.069 112.198 115.13 111.793 115.13ZM115.637 115V109.098H116.972V110.465L116.82 110.237C116.928 109.81 117.145 109.492 117.471 109.282C117.796 109.072 118.179 108.967 118.621 108.967C119.105 108.967 119.532 109.094 119.901 109.347C120.27 109.6 120.509 109.933 120.617 110.345L120.216 110.378C120.397 109.908 120.668 109.557 121.029 109.325C121.391 109.087 121.807 108.967 122.277 108.967C122.697 108.967 123.069 109.061 123.395 109.249C123.727 109.438 123.988 109.702 124.176 110.042C124.364 110.374 124.458 110.761 124.458 111.202V115H123.037V111.539C123.037 111.278 122.99 111.054 122.896 110.866C122.802 110.678 122.671 110.533 122.505 110.432C122.339 110.324 122.136 110.269 121.897 110.269C121.673 110.269 121.474 110.324 121.301 110.432C121.127 110.533 120.993 110.678 120.899 110.866C120.805 111.054 120.758 111.278 120.758 111.539V115H119.337V111.539C119.337 111.278 119.29 111.054 119.196 110.866C119.102 110.678 118.968 110.533 118.794 110.432C118.628 110.324 118.429 110.269 118.198 110.269C117.973 110.269 117.774 110.324 117.601 110.432C117.427 110.533 117.293 110.678 117.199 110.866C117.105 111.054 117.058 111.278 117.058 111.539V115H115.637ZM125.66 117.17V109.098H126.995V110.269L126.865 109.976C127.067 109.658 127.342 109.412 127.689 109.239C128.037 109.058 128.438 108.967 128.894 108.967C129.451 108.967 129.953 109.105 130.402 109.38C130.85 109.655 131.205 110.023 131.465 110.486C131.733 110.949 131.867 111.47 131.867 112.049C131.867 112.62 131.736 113.141 131.476 113.611C131.216 114.081 130.861 114.454 130.413 114.729C129.964 114.996 129.454 115.13 128.883 115.13C128.456 115.13 128.062 115.047 127.7 114.881C127.346 114.707 127.064 114.461 126.854 114.143L127.082 113.861V117.17H125.66ZM128.72 113.828C129.046 113.828 129.335 113.752 129.588 113.6C129.841 113.448 130.037 113.239 130.174 112.971C130.319 112.703 130.391 112.396 130.391 112.049C130.391 111.702 130.319 111.398 130.174 111.137C130.037 110.87 129.841 110.66 129.588 110.508C129.335 110.349 129.046 110.269 128.72 110.269C128.409 110.269 128.127 110.345 127.874 110.497C127.628 110.649 127.433 110.863 127.288 111.137C127.151 111.405 127.082 111.709 127.082 112.049C127.082 112.396 127.151 112.703 127.288 112.971C127.433 113.239 127.628 113.448 127.874 113.6C128.127 113.752 128.409 113.828 128.72 113.828ZM132.95 115V106.787H134.372V115H132.95ZM137.474 115.13C137.062 115.13 136.704 115.061 136.4 114.924C136.096 114.787 135.861 114.591 135.695 114.338C135.529 114.078 135.445 113.778 135.445 113.438C135.445 113.112 135.518 112.823 135.662 112.57C135.807 112.309 136.031 112.092 136.335 111.919C136.639 111.745 137.022 111.622 137.485 111.55L139.416 111.235V112.32L137.756 112.602C137.474 112.653 137.265 112.743 137.127 112.873C136.99 113.004 136.921 113.174 136.921 113.383C136.921 113.586 136.997 113.749 137.149 113.872C137.308 113.987 137.503 114.045 137.735 114.045C138.031 114.045 138.292 113.984 138.516 113.861C138.747 113.731 138.925 113.553 139.048 113.329C139.178 113.105 139.243 112.859 139.243 112.591V111.072C139.243 110.819 139.142 110.609 138.939 110.443C138.744 110.269 138.483 110.183 138.158 110.183C137.854 110.183 137.583 110.266 137.344 110.432C137.113 110.591 136.943 110.805 136.834 111.072L135.673 110.508C135.789 110.197 135.97 109.929 136.216 109.705C136.469 109.474 136.765 109.293 137.105 109.163C137.445 109.032 137.814 108.967 138.212 108.967C138.697 108.967 139.123 109.058 139.492 109.239C139.861 109.412 140.147 109.658 140.35 109.976C140.559 110.287 140.664 110.653 140.664 111.072V115H139.319V113.991L139.623 113.969C139.471 114.222 139.29 114.436 139.08 114.609C138.87 114.776 138.632 114.906 138.364 115C138.096 115.087 137.8 115.13 137.474 115.13ZM144.563 115.065C143.897 115.065 143.38 114.884 143.011 114.523C142.65 114.154 142.469 113.637 142.469 112.971V110.367H141.449V109.098H141.557C141.847 109.098 142.071 109.022 142.23 108.87C142.389 108.718 142.469 108.497 142.469 108.208V107.752H143.89V109.098H145.246V110.367H143.89V112.895C143.89 113.09 143.923 113.257 143.988 113.394C144.06 113.532 144.169 113.637 144.313 113.709C144.465 113.781 144.657 113.817 144.888 113.817C144.939 113.817 144.997 113.814 145.062 113.806C145.134 113.799 145.203 113.792 145.268 113.785V115C145.167 115.014 145.051 115.029 144.921 115.043C144.791 115.058 144.671 115.065 144.563 115.065ZM149.1 115.13C148.493 115.13 147.961 114.993 147.505 114.718C147.05 114.443 146.695 114.071 146.442 113.6C146.189 113.13 146.062 112.609 146.062 112.038C146.062 111.445 146.189 110.92 146.442 110.465C146.702 110.002 147.053 109.636 147.494 109.369C147.943 109.101 148.442 108.967 148.992 108.967C149.455 108.967 149.86 109.043 150.207 109.195C150.561 109.347 150.862 109.557 151.107 109.825C151.353 110.092 151.541 110.4 151.672 110.747C151.802 111.087 151.867 111.456 151.867 111.853C151.867 111.955 151.86 112.06 151.845 112.168C151.838 112.277 151.82 112.371 151.791 112.45H147.234V111.365H150.988L150.315 111.875C150.381 111.542 150.362 111.246 150.261 110.986C150.167 110.725 150.008 110.519 149.784 110.367C149.567 110.215 149.303 110.139 148.992 110.139C148.695 110.139 148.431 110.215 148.2 110.367C147.968 110.512 147.791 110.729 147.668 111.018C147.552 111.3 147.509 111.644 147.538 112.049C147.509 112.41 147.556 112.732 147.679 113.014C147.809 113.289 147.997 113.503 148.243 113.655C148.496 113.806 148.786 113.882 149.111 113.882C149.437 113.882 149.711 113.814 149.936 113.676C150.167 113.539 150.348 113.354 150.478 113.123L151.628 113.687C151.513 113.969 151.332 114.219 151.086 114.436C150.84 114.653 150.547 114.823 150.207 114.946C149.874 115.069 149.505 115.13 149.1 115.13Z" fill="black"/>
<circle cx="80.3247" cy="46.5" r="46.5" fill="#FFFAF1"/>
</svg>
