<svg width="21" height="21" viewBox="0 0 21 21" fill="none" xmlns="http://www.w3.org/2000/svg">
<path fill-rule="evenodd" clip-rule="evenodd" d="M8.33891 5.03484C8.28425 5.03153 8.22363 5.03125 8.04757 5.03125H6.825C6.07911 5.03125 5.55915 5.03177 5.15435 5.06483C4.7572 5.09729 4.52904 5.15778 4.35621 5.24584C3.98577 5.43458 3.68458 5.73577 3.49584 6.10621C3.40778 6.27904 3.34729 6.50721 3.31483 6.90435C3.28176 7.30915 3.28125 7.82911 3.28125 8.575V12.425C3.28125 13.1709 3.28176 13.6909 3.31483 14.0956C3.34729 14.4928 3.40778 14.721 3.49584 14.8938C3.68458 15.2642 3.98577 15.5655 4.35621 15.7542C4.52904 15.8422 4.7572 15.9027 5.15435 15.9351C5.55915 15.9682 6.07911 15.9688 6.825 15.9688H14.175C14.9209 15.9688 15.4409 15.9682 15.8456 15.9351C16.2428 15.9027 16.471 15.8422 16.6438 15.7542C17.0142 15.5655 17.3154 15.2642 17.5042 14.8938C17.5922 14.721 17.6527 14.4928 17.6851 14.0956C17.7182 13.6909 17.7188 13.1709 17.7188 12.425V11.2C17.7188 10.4541 17.7182 9.93414 17.6851 9.52936C17.6527 9.1322 17.5922 8.904 17.5042 8.73121C17.3154 8.36077 17.0142 8.05958 16.6438 7.87084C16.471 7.78278 16.2428 7.72229 15.8456 7.68983C15.4409 7.65677 14.9209 7.65625 14.175 7.65625H12.9326C12.7837 7.65627 12.6811 7.65628 12.5819 7.65027C11.6259 7.5925 10.7428 7.1199 10.1644 6.3565C10.1044 6.27727 10.0475 6.19188 9.96494 6.06799L9.954 6.05153C9.85635 5.90503 9.82249 5.85476 9.78941 5.8111C9.44239 5.35306 8.91249 5.06951 8.33891 5.03484ZM8.06739 3.71875C8.21627 3.71874 8.31888 3.71873 8.41809 3.72473C9.37414 3.7825 10.2572 4.2551 10.8356 5.01851C10.8956 5.09773 10.9525 5.18312 11.0351 5.30702L11.046 5.32348C11.1437 5.46997 11.1775 5.52025 11.2106 5.5639C11.5576 6.02194 12.0875 6.3055 12.6611 6.34016C12.7158 6.34347 12.7764 6.34375 12.9524 6.34375H14.2031C14.9143 6.34374 15.488 6.34374 15.9526 6.3817C16.4308 6.42078 16.8509 6.50334 17.2397 6.70139C17.8571 7.01597 18.359 7.51794 18.6736 8.13535C18.8716 8.52404 18.9543 8.94416 18.9933 9.42244C19.0312 9.88698 19.0312 10.4606 19.0312 11.1719V12.4531C19.0312 13.1644 19.0312 13.738 18.9933 14.2026C18.9543 14.6808 18.8716 15.1009 18.6736 15.4897C18.359 16.1071 17.8571 16.6091 17.2397 16.9236C16.8509 17.1216 16.4308 17.2043 15.9526 17.2433C15.488 17.2812 14.9144 17.2812 14.2031 17.2812H6.7969C6.08567 17.2812 5.51201 17.2812 5.04746 17.2433C4.56916 17.2043 4.14903 17.1216 3.76035 16.9236C3.14294 16.6091 2.64097 16.1071 2.32639 15.4897C2.12834 15.1009 2.04578 14.6808 2.00669 14.2026C1.96874 13.738 1.96874 13.1643 1.96875 12.4531V8.54691C1.96874 7.83568 1.96874 7.26201 2.00669 6.79746C2.04578 6.31916 2.12834 5.89904 2.32639 5.51035C2.64097 4.89294 3.14294 4.39097 3.76035 4.07639C4.14903 3.87834 4.56916 3.79578 5.04746 3.7567C5.51201 3.71874 6.08568 3.71874 6.79691 3.71875H8.06739Z" fill="#414354"/>
</svg>
