<svg width="51" height="49" viewBox="0 0 51 49" fill="none" xmlns="http://www.w3.org/2000/svg">
<path d="M20.6145 23.8629C20.155 23.63 19.9639 23.058 20.3026 22.6698C20.7242 22.1864 21.2661 21.815 21.8805 21.5975C22.7908 21.2752 23.7901 21.3157 24.6713 21.7106C25.5525 22.1054 26.2479 22.8243 26.6133 23.7181C26.8599 24.3213 26.9434 24.973 26.8633 25.6094C26.799 26.1206 26.2449 26.3587 25.7653 26.1708V26.1708C25.2856 25.9829 25.0751 25.4261 25.0137 24.9146C24.9936 24.7475 24.9512 24.5824 24.8865 24.424C24.7025 23.9739 24.3523 23.6119 23.9085 23.413C23.4647 23.2142 22.9615 23.1938 22.5031 23.3561C22.3417 23.4132 22.1903 23.4914 22.0522 23.5877C21.6297 23.8823 21.074 24.0958 20.6145 23.8629V23.8629Z" fill="#417D60"/>
<path d="M17.4606 23.6336C16.9858 23.4694 16.7295 22.9475 16.953 22.4977C17.2784 21.8428 17.7021 21.2402 18.2102 20.7126C18.9285 19.9668 19.7975 19.3896 20.7546 19.0226C21.7118 18.6556 22.7333 18.5079 23.7457 18.5902C24.7581 18.6724 25.7361 18.9826 26.6095 19.4983C27.4829 20.0141 28.2299 20.7226 28.7967 21.5728C29.3635 22.4231 29.7361 23.394 29.8876 24.4157C30.0391 25.4374 29.9658 26.4845 29.673 27.4816C29.4675 28.1811 29.1576 28.8439 28.7557 29.4469C28.4735 29.8704 27.8842 29.9031 27.5061 29.5625V29.5625C27.1365 29.2297 27.1102 28.6651 27.3689 28.2403C27.6086 27.8469 27.7967 27.4222 27.9274 26.9773C28.1427 26.2444 28.1965 25.4746 28.0851 24.7235C27.9738 23.9725 27.6999 23.2587 27.2832 22.6337C26.8665 22.0086 26.3174 21.4878 25.6753 21.1086C25.0333 20.7295 24.3143 20.5015 23.57 20.441C22.8258 20.3805 22.0748 20.4891 21.3712 20.7589C20.6676 21.0287 20.0287 21.453 19.5007 22.0013C19.1822 22.332 18.9089 22.7027 18.6869 23.1033C18.4441 23.5415 17.934 23.7973 17.4606 23.6336V23.6336Z" fill="#417D60"/>
<path d="M15.1544 21.2259C14.6122 20.9545 14.3891 20.2899 14.7213 19.7827C15.3905 18.7607 16.2464 17.8676 17.2484 17.1504C18.5505 16.2184 20.0616 15.6105 21.6551 15.3775C23.2485 15.1445 24.8779 15.2933 26.4066 15.8113C27.9353 16.3294 29.3188 17.2016 30.4412 18.3549C31.5636 19.5083 32.3921 20.9091 32.8573 22.4399C33.3226 23.9708 33.411 25.5871 33.1151 27.1534C32.8192 28.7198 32.1477 30.1904 31.1569 31.4422C30.3877 32.414 29.4434 33.2318 28.3743 33.8567C27.8605 34.1569 27.2188 33.9138 26.9683 33.3741V33.3741C26.7132 32.8246 26.9618 32.1788 27.4743 31.8559C28.2204 31.3859 28.8826 30.7929 29.4311 30.1C30.2071 29.1197 30.733 27.9679 30.9647 26.7413C31.1964 25.5146 31.1272 24.2488 30.7628 23.0499C30.3985 21.851 29.7496 20.7539 28.8706 19.8507C27.9916 18.9475 26.9081 18.2644 25.7109 17.8587C24.5137 17.4529 23.2377 17.3364 21.9897 17.5189C20.7418 17.7014 19.5584 18.1775 18.5387 18.9073C17.8166 19.4242 17.1914 20.0577 16.6878 20.7791C16.3429 21.2733 15.6933 21.4956 15.1544 21.2259V21.2259Z" fill="#417D60"/>
<path d="M14.3971 16.8601C14.0179 16.4897 14.0109 15.8782 14.4116 15.5311C15.6113 14.4919 16.9988 13.6819 18.5055 13.1448C20.3162 12.4994 22.2532 12.2644 24.1753 12.457C26.0974 12.6495 27.9562 13.2648 29.6162 14.258C31.2762 15.2511 32.6955 16.5971 33.7707 18.1978C34.8458 19.7985 35.5497 21.6136 35.8311 23.5107C36.1124 25.4077 35.9641 27.339 35.397 29.1638C34.8299 30.9885 33.8582 32.6606 32.5528 34.0583C31.4603 35.2279 30.1573 36.1807 28.7122 36.87C28.2427 37.094 27.6942 36.8552 27.4989 36.3731V36.3731C27.3001 35.8823 27.5431 35.3274 28.0176 35.0924C29.1922 34.5106 30.2529 33.7231 31.1479 32.7648C32.2613 31.5727 33.0902 30.1464 33.5739 28.59C34.0577 27.0335 34.1842 25.3862 33.9442 23.768C33.7042 22.1499 33.1038 20.6017 32.1867 19.2364C31.2696 17.871 30.059 16.723 28.6431 15.8758C27.2272 15.0287 25.6417 14.5039 24.0022 14.3396C22.3627 14.1753 20.7105 14.3758 19.166 14.9263C17.921 15.3701 16.7713 16.0325 15.7703 16.8794C15.37 17.2181 14.7722 17.2265 14.3971 16.8601V16.8601Z" fill="#417D60"/>
<path d="M16.9551 11.7527C16.7638 11.2896 16.9769 10.7559 17.446 10.5799C19.1768 9.93081 20.9988 9.57813 22.8331 9.53937C24.9651 9.49431 27.0709 9.87427 29.0273 10.657C30.9837 11.4397 32.7514 12.6095 34.2268 14.0978C35.7022 15.5861 36.8558 17.3631 37.62 19.3247C38.3842 21.2864 38.7436 23.3933 38.6773 25.5221C38.6109 27.6509 38.1202 29.7588 37.2337 31.7225C36.3472 33.6862 35.0828 35.4662 33.5145 36.9584C32.1753 38.2325 30.6374 39.2749 28.9681 40.0427C28.4979 40.259 27.9536 40.0124 27.7756 39.5265V39.5265C27.6034 39.0562 27.8396 38.5372 28.2936 38.3258C29.7451 37.6502 31.0827 36.7391 32.2496 35.6289C33.6353 34.3105 34.7524 32.7378 35.5357 31.0028C36.3189 29.2677 36.7526 27.4053 36.8112 25.5244C36.8698 23.6435 36.5522 21.782 35.877 20.0488C35.2018 18.3156 34.1826 16.7455 32.879 15.4305C31.5754 14.1156 30.0136 13.082 28.285 12.3905C26.5565 11.6989 24.6959 11.3632 22.8121 11.403C21.2392 11.4362 19.6765 11.7307 18.1877 12.2724C17.7025 12.4489 17.1523 12.2299 16.9551 11.7527V11.7527Z" fill="#417D60"/>
<path d="M30.8683 9.59632C31.0517 9.09817 31.6053 8.83988 32.0919 9.05201C35.0407 10.3374 37.5395 12.489 39.2561 15.2366C40.976 17.9898 41.8224 21.2004 41.6965 24.4468C41.6762 24.9713 41.2101 25.3549 40.6873 25.3074V25.3074C40.1599 25.2595 39.7755 24.7912 39.7915 24.2618C39.8764 21.4427 39.1301 18.6594 37.636 16.2677C36.1439 13.8793 33.9811 12.0018 31.4287 10.8636C30.9425 10.6468 30.6844 10.0959 30.8683 9.59632V9.59632Z" fill="#417D60"/>
<path d="M37.2823 36.1763C37.6945 36.4986 37.7776 37.0924 37.4437 37.4952C35.5809 39.7426 33.1707 41.4388 30.4624 42.4094C29.9455 42.5946 29.3941 42.2823 29.2504 41.7522V41.7522C29.1099 41.2342 29.4125 40.7025 29.9166 40.5183C32.2195 39.6769 34.2742 38.2389 35.8822 36.3434C36.2344 35.9281 36.8534 35.8408 37.2823 36.1763V36.1763Z" fill="#417D60"/>
<path d="M42.7482 18.4066C43.251 18.2532 43.7875 18.5277 43.9255 19.0349C44.2864 20.3608 44.4797 21.7219 44.501 23.0863C44.5096 23.637 44.0327 24.0583 43.4833 24.0189V24.0189C42.9532 23.9808 42.5537 23.5268 42.5428 22.9954C42.5197 21.8702 42.364 20.748 42.0788 19.6519C41.9414 19.1237 42.2261 18.5658 42.7482 18.4066V18.4066Z" fill="#417D60"/>
</svg>
