<svg width="19" height="19" viewBox="0 0 19 19" fill="none" xmlns="http://www.w3.org/2000/svg">
<path d="M17.2423 5.328C17.2186 4.78175 16.7753 4.35425 16.229 4.35425C15.6828 4.35425 15.2394 4.78175 15.2157 5.328L14.8119 13.8542H13.4582V7.95633C13.4582 7.28341 12.904 6.72925 12.2311 6.72925H2.01859C1.34567 6.72925 0.791504 7.28341 0.791504 7.95633V16.5855C0.791504 17.2584 1.34567 17.8126 2.01859 17.8126H12.2311C12.904 17.8126 13.4582 17.2584 13.4582 16.5855V16.2292H14.7011C14.6773 17.0922 15.374 17.8126 16.229 17.8126C17.084 17.8126 17.7886 17.0842 17.7569 16.2134L17.2423 5.328ZM12.6665 16.5855C12.6665 16.823 12.4686 17.0209 12.2311 17.0209H2.01859C1.78109 17.0209 1.58317 16.823 1.58317 16.5855V7.95633C1.58317 7.71883 1.78109 7.52091 2.01859 7.52091H12.2311C12.4686 7.52091 12.6665 7.71883 12.6665 7.95633V16.5855ZM14.7407 15.4376H13.4582V14.6459H14.7723L14.7407 15.4376ZM15.9994 5.35966C16.0073 5.24091 16.1103 5.14591 16.229 5.14591C16.3478 5.14591 16.4507 5.24091 16.4586 5.35966L16.5773 7.91675H15.8807L15.9994 5.35966ZM16.7594 16.7913C16.4823 17.0842 15.9757 17.0842 15.6986 16.7913C15.5561 16.6488 15.4848 16.4509 15.4928 16.253L15.8411 8.70842H16.6169L16.9653 16.253C16.9732 16.4509 16.9019 16.6488 16.7594 16.7913Z" fill="#414354"/>
<path d="M9.49984 16.2292C9.71845 16.2292 9.89567 16.0519 9.89567 15.8333C9.89567 15.6147 9.71845 15.4375 9.49984 15.4375C9.28122 15.4375 9.104 15.6147 9.104 15.8333C9.104 16.0519 9.28122 16.2292 9.49984 16.2292Z" fill="#414354"/>
<path d="M11.0833 16.2292C11.3019 16.2292 11.4792 16.0519 11.4792 15.8333C11.4792 15.6147 11.3019 15.4375 11.0833 15.4375C10.8647 15.4375 10.6875 15.6147 10.6875 15.8333C10.6875 16.0519 10.8647 16.2292 11.0833 16.2292Z" fill="#414354"/>
<path d="M6.33333 16.2292C6.55195 16.2292 6.72917 16.0519 6.72917 15.8333C6.72917 15.6147 6.55195 15.4375 6.33333 15.4375C6.11472 15.4375 5.9375 15.6147 5.9375 15.8333C5.9375 16.0519 6.11472 16.2292 6.33333 16.2292Z" fill="#414354"/>
<path d="M7.91683 16.2292C8.13544 16.2292 8.31266 16.0519 8.31266 15.8333C8.31266 15.6147 8.13544 15.4375 7.91683 15.4375C7.69822 15.4375 7.521 15.6147 7.521 15.8333C7.521 16.0519 7.69822 16.2292 7.91683 16.2292Z" fill="#414354"/>
<path d="M3.16683 16.2292C3.38544 16.2292 3.56266 16.0519 3.56266 15.8333C3.56266 15.6147 3.38544 15.4375 3.16683 15.4375C2.94822 15.4375 2.771 15.6147 2.771 15.8333C2.771 16.0519 2.94822 16.2292 3.16683 16.2292Z" fill="#414354"/>
<path d="M4.74984 16.2292C4.96845 16.2292 5.14567 16.0519 5.14567 15.8333C5.14567 15.6147 4.96845 15.4375 4.74984 15.4375C4.53122 15.4375 4.354 15.6147 4.354 15.8333C4.354 16.0519 4.53122 16.2292 4.74984 16.2292Z" fill="#414354"/>
<path d="M9.5 8.70833C9.5 8.49142 9.32108 8.3125 9.10417 8.3125H5.14583C4.92892 8.3125 4.75 8.49142 4.75 8.70833C4.75 8.92525 4.92892 9.10417 5.14583 9.10417H9.10417C9.32108 9.10417 9.5 8.92525 9.5 8.70833Z" fill="#414354"/>
<path d="M7.91683 10.2916C7.91683 10.0731 7.7395 9.89575 7.521 9.89575H6.72933C6.51083 9.89575 6.3335 10.0731 6.3335 10.2916C6.3335 10.5101 6.51083 10.6874 6.72933 10.6874H7.521C7.7395 10.6874 7.91683 10.5101 7.91683 10.2916Z" fill="#414354"/>
<path d="M5.9375 5.54175C5.9375 5.76025 6.11483 5.93758 6.33333 5.93758C6.55183 5.93758 6.72917 5.76025 6.72917 5.54175C6.72917 5.32404 6.9065 5.14591 7.125 5.14591C7.3435 5.14591 7.52083 5.32404 7.52083 5.54175C7.52083 5.76025 7.69817 5.93758 7.91667 5.93758C8.13517 5.93758 8.3125 5.76025 8.3125 5.54175C8.3125 4.88704 7.77971 4.35425 7.125 4.35425C6.47029 4.35425 5.9375 4.88704 5.9375 5.54175Z" fill="#414354"/>
<path d="M9.104 5.54159C9.104 5.76009 9.28134 5.93742 9.49984 5.93742C9.71834 5.93742 9.89567 5.76009 9.89567 5.54159C9.89567 4.01367 8.65275 2.77075 7.12484 2.77075C5.59692 2.77075 4.354 4.01367 4.354 5.54159C4.354 5.76009 4.53134 5.93742 4.74984 5.93742C4.96834 5.93742 5.14567 5.76009 5.14567 5.54159C5.14567 4.44988 6.03392 3.56242 7.12484 3.56242C8.21575 3.56242 9.104 4.44988 9.104 5.54159Z" fill="#414354"/>
<path d="M3.16683 5.9375C3.38533 5.9375 3.56266 5.76017 3.56266 5.54167C3.56266 3.57754 5.16104 1.97917 7.12516 1.97917C9.08929 1.97917 10.6877 3.57754 10.6877 5.54167C10.6877 5.76017 10.865 5.9375 11.0835 5.9375C11.302 5.9375 11.4793 5.76017 11.4793 5.54167C11.4793 3.14133 9.52629 1.1875 7.12516 1.1875C4.72404 1.1875 2.771 3.14133 2.771 5.54167C2.771 5.76017 2.94833 5.9375 3.16683 5.9375Z" fill="#414354"/>
</svg>
