<svg width="22" height="22" viewBox="0 0 22 22" fill="none" xmlns="http://www.w3.org/2000/svg">
<path d="M15.2625 8.8L13.2 6.7375L16.6375 3.3C16.0188 2.95625 15.2625 2.75 14.4375 2.75C11.7562 2.75 9.625 4.88125 9.625 7.5625C9.625 7.8375 9.625 8.1125 9.69375 8.3875C7.7 10.3812 3.9875 14.0938 3.575 14.5063C2.475 15.6063 2.475 17.325 3.575 18.425C4.675 19.525 6.39375 19.525 7.49375 18.425C7.90625 18.0125 11.6187 14.3 13.6125 12.3062C13.8875 12.375 14.1625 12.375 14.4375 12.375C17.1188 12.375 19.25 10.2438 19.25 7.5625C19.25 6.7375 19.0438 5.98125 18.7 5.3625L15.2625 8.8Z" stroke="#414354" stroke-width="1.375" stroke-miterlimit="10"/>
</svg>
