<svg width="19" height="19" viewBox="0 0 19 19" fill="none" xmlns="http://www.w3.org/2000/svg">
<path d="M16.0312 4.75H8.90625C8.74879 4.75003 8.59779 4.81261 8.48647 4.92397L7.71875 5.69169L6.95103 4.92397C6.83971 4.81261 6.68871 4.75003 6.53125 4.75H2.96875C2.49633 4.75 2.04327 4.93767 1.70922 5.27172C1.37517 5.60576 1.1875 6.05883 1.1875 6.53125V12.4688C1.1875 12.9412 1.37517 13.3942 1.70922 13.7283C2.04327 14.0623 2.49633 14.25 2.96875 14.25H6.53125C6.68871 14.25 6.83971 14.1874 6.95103 14.076L7.71875 13.3083L8.48647 14.076C8.59779 14.1874 8.74879 14.25 8.90625 14.25H16.0312C16.5037 14.25 16.9567 14.0623 17.2908 13.7283C17.6248 13.3942 17.8125 12.9412 17.8125 12.4688V6.53125C17.8125 6.05883 17.6248 5.60576 17.2908 5.27172C16.9567 4.93767 16.5037 4.75 16.0312 4.75ZM16.625 12.4688C16.625 12.6262 16.5624 12.7772 16.4511 12.8886C16.3397 12.9999 16.1887 13.0625 16.0312 13.0625H9.15206L8.13853 12.049C8.02719 11.9377 7.87619 11.8751 7.71875 11.8751C7.56131 11.8751 7.41031 11.9377 7.29897 12.049L6.28544 13.0625H2.96875C2.81128 13.0625 2.66026 12.9999 2.54891 12.8886C2.43756 12.7772 2.375 12.6262 2.375 12.4688V6.53125C2.375 6.37378 2.43756 6.22276 2.54891 6.11141C2.66026 6.00006 2.81128 5.9375 2.96875 5.9375H6.28544L7.29897 6.95103C7.41031 7.06234 7.56131 7.12487 7.71875 7.12487C7.87619 7.12487 8.02719 7.06234 8.13853 6.95103L9.15206 5.9375H16.0312C16.1887 5.9375 16.3397 6.00006 16.4511 6.11141C16.5624 6.22276 16.625 6.37378 16.625 6.53125V12.4688Z" fill="#414354"/>
<path d="M7.71875 8.3125C7.56128 8.3125 7.41026 8.37506 7.29891 8.48641C7.18756 8.59776 7.125 8.74878 7.125 8.90625V10.0938C7.125 10.2512 7.18756 10.4022 7.29891 10.5136C7.41026 10.6249 7.56128 10.6875 7.71875 10.6875C7.87622 10.6875 8.02724 10.6249 8.13859 10.5136C8.24994 10.4022 8.3125 10.2512 8.3125 10.0938V8.90625C8.3125 8.74878 8.24994 8.59776 8.13859 8.48641C8.02724 8.37506 7.87622 8.3125 7.71875 8.3125Z" fill="#414354"/>
<path d="M13.3144 6.56093C12.5163 6.69156 11.7814 7.07518 11.2179 7.65521C9.93894 8.93415 9.72578 10.8021 10.7429 11.8198C10.96 12.0323 11.2175 12.1993 11.5002 12.3107C11.7828 12.4222 12.085 12.4759 12.3888 12.4687C12.53 12.4686 12.6711 12.4583 12.8109 12.4379C13.6051 12.296 14.3367 11.9142 14.9073 11.3438C15.4778 10.7734 15.8598 10.0418 16.0017 9.24765C16.0778 8.87862 16.0611 8.49646 15.953 8.1355C15.8449 7.77455 15.6488 7.4461 15.3824 7.17966C15.116 6.91322 14.7875 6.71715 14.4266 6.60905C14.0656 6.50095 13.6834 6.48421 13.3144 6.56034V6.56093ZM12.0574 8.49477C12.4408 8.09841 12.9395 7.83308 13.4824 7.73655C13.5645 7.72491 13.6472 7.71896 13.73 7.71874C13.8145 7.71883 13.8987 7.72639 13.9818 7.7413L11.3099 10.4132C11.2789 10.0575 11.3303 9.69945 11.4599 9.36678C11.5895 9.0341 11.794 8.73573 12.0574 8.49477ZM14.8261 9.08021C14.7298 9.62323 14.4644 10.122 14.0679 10.5052C13.6864 10.9042 13.1869 11.1702 12.6429 11.264C12.4787 11.2874 12.3119 11.284 12.1489 11.2539L14.816 8.5868C14.8454 8.74971 14.8488 8.91624 14.8261 9.08021Z" fill="#414354"/>
</svg>
